<?xml version="1.0" encoding="utf-8"?>
<!-- Generator: Adobe Illustrator 26.3.1, SVG Export Plug-In . SVG Version: 6.00 Build 0)  -->
<svg version="1.1" id="Layer_1" xmlns="http://www.w3.org/2000/svg" xmlns:xlink="http://www.w3.org/1999/xlink" x="0px" y="0px"
	 viewBox="0 0 893.6 347.63" style="enable-background:new 0 0 893.6 347.63;" xml:space="preserve">
<style type="text/css">
	.st0{fill:#2142AB;}
</style>
<g>
	<g>
		<path d="M248.5,280.44c-21.38,20.53-52.61,32.5-103.08,32.5H34.22h-0.43V278.3h0.43h23.52V101.66c0-11.98-3.85-17.54-17.96-17.54
			H28.23V49.48h79.12c75.28,0,105.22,5.13,135.15,30.79c27.37,23.52,41.06,59.88,41.06,101.79
			C283.57,220.13,273.3,256.49,248.5,280.44z M187.76,99.52c-12.83-12.83-30.37-15.4-56.46-15.4h-3.42v177.07
			c0,10.69,5.13,17.11,17.11,17.11h10.69c34.64,0,54.75-24.38,54.75-97.52C210.43,144.43,204.01,115.77,187.76,99.52z"/>
		<path d="M463.2,312.94c-14.54,0-26.95-4.28-32.08-15.4c-8.98,9.41-32.08,20.96-56.03,20.96c-33.36,0-63.3-18.82-63.3-62.87
			c0-44.91,44.48-70.14,107.35-71.43v-11.97c0-17.54-10.26-25.24-28.23-25.24c-14.97,0-35.07,2.99-60.73,13.26V123.9
			c20.96-7.7,47.9-12.4,69.72-12.4c50.04,0,85.11,18.39,85.11,73.14v86.82c0,8.55,4.28,11.98,12.4,11.98h14.97v29.51H463.2z
			 M419.15,214.57c-28.23,1.71-44.91,17.11-44.91,35.93c0,14.11,8.98,23.52,23.52,23.52c8.55,0,17.96-4.28,21.39-7.27V214.57z"/>
		<path d="M734.79,147c-10.26,0-16.68,1.71-21.81,15.4l-56.88,150.55h-53.46L536.76,147h-21.81v-29.94h111.2V147h-8.55
			c-11.55,0-14.11,7.7-10.26,17.96l30.37,82.12L671.49,147h-20.1v-29.94h88.54l5.99,29.94H734.79z"/>
		<path d="M755.32,312.94v-29.51h22.24V147H751.9l-5.99-29.94c40.2,0,65.87-2.99,81.26-2.99c11.55,0,16.25,2.99,16.25,12.83v144.14
			c0,10.27,4.71,12.4,14.54,12.4h8.13v29.51H755.32z"/>
	</g>
	<path class="st0" d="M839.15,62.69c5.71-3.33,5.71-8.56,0-11.89l-51.36-29.72c-5.71-3.33-10.22-0.48-10.22,5.94v59.45
		c0,6.66,4.52,9.27,10.22,5.94L839.15,62.69z"/>
</g>
</svg>
